# xmcd
#
# Track frame offsets:
# 150
# 12315
# 28002
# 44066
# 56844
# 72366
# 85680
# 101153
# 116880
# 131683
# 145103
# 160743
#
# Disc length: 2327 seconds
#
# Revision: 1
# Processed by: cddbd v1.5.1PL0 Copyright (c) Steve Scherf et al.
# Submitted via: CedeCatalogueitor 2.6.0.4 http://personales.ya.com/cdcatalogueitor
#
DISCID=ac09150c
DTITLE=MAR ADENTRO - MAR ADENTRO
DYEAR=2003
DGENRE=
TTITLE0=Si Quiero Puedo
TTITLE1=Estaré A Tu Lado
TTITLE2=En La Almohada
TTITLE3=La Espuma Del Mar (Con Hevia)
TTITLE4=Vuela
TTITLE5=Otra Forma De Pensar
TTITLE6=Son De Paz
TTITLE7=Navegar En Recuerdos
TTITLE8=Sal
TTITLE9=Cuna Luna
TTITLE10=Dios De La Lluvia
TTITLE11=Una Lágrima
EXTD=
EXTT0=
EXTT1=
EXTT2=
EXTT3=
EXTT4=
EXTT5=
EXTT6=
EXTT7=
EXTT8=
EXTT9=
EXTT10=
EXTT11=
PLAYORDER=
